<mxfile host="app.diagrams.net" modified="2022-12-13T16:17:48.440Z" agent="5.0 (X11; Linux x86_64) AppleWebKit/537.36 (KHTML, like Gecko) Chrome/108.0.0.0 Safari/537.36" etag="QqJDAvnJGQ961fi6q-p_" version="20.6.2" type="github" pages="2">
  <diagram id="i2iANbK01hYDNkAA648U" name="Use case">
    <mxGraphModel dx="2062" dy="1128" grid="1" gridSize="10" guides="1" tooltips="1" connect="1" arrows="1" fold="1" page="1" pageScale="1" pageWidth="827" pageHeight="1169" math="0" shadow="0">
      <root>
        <mxCell id="0" />
        <mxCell id="1" parent="0" />
        <mxCell id="WPbAcu-Nf7KmGmuH2XIX-1" value="express food" style="shape=umlFrame;whiteSpace=wrap;html=1;" parent="1" vertex="1">
          <mxGeometry x="159" y="120" width="510" height="630" as="geometry" />
        </mxCell>
        <mxCell id="WPbAcu-Nf7KmGmuH2XIX-2" value="Client" style="shape=umlActor;verticalLabelPosition=bottom;verticalAlign=top;html=1;" parent="1" vertex="1">
          <mxGeometry x="50" y="370" width="30" height="60" as="geometry" />
        </mxCell>
        <mxCell id="WPbAcu-Nf7KmGmuH2XIX-6" value="Choisir des plats" style="ellipse;whiteSpace=wrap;html=1;" parent="1" vertex="1">
          <mxGeometry x="190" y="240" width="140" height="70" as="geometry" />
        </mxCell>
        <mxCell id="WPbAcu-Nf7KmGmuH2XIX-8" value="Valider achat" style="ellipse;whiteSpace=wrap;html=1;" parent="1" vertex="1">
          <mxGeometry x="520" y="280" width="140" height="70" as="geometry" />
        </mxCell>
        <mxCell id="WPbAcu-Nf7KmGmuH2XIX-11" value="Confirmer commande" style="ellipse;whiteSpace=wrap;html=1;" parent="1" vertex="1">
          <mxGeometry x="370" y="130" width="140" height="70" as="geometry" />
        </mxCell>
        <mxCell id="WPbAcu-Nf7KmGmuH2XIX-14" value="Se connecter" style="ellipse;whiteSpace=wrap;html=1;" parent="1" vertex="1">
          <mxGeometry x="170" y="540" width="140" height="70" as="geometry" />
        </mxCell>
        <mxCell id="WPbAcu-Nf7KmGmuH2XIX-15" value="banque" style="shape=umlActor;verticalLabelPosition=bottom;verticalAlign=top;html=1;" parent="1" vertex="1">
          <mxGeometry x="750" y="290" width="30" height="60" as="geometry" />
        </mxCell>
        <mxCell id="WPbAcu-Nf7KmGmuH2XIX-18" value="" style="endArrow=classic;html=1;rounded=0;exitX=1;exitY=0.3333333333333333;exitDx=0;exitDy=0;exitPerimeter=0;endFill=1;" parent="1" source="WPbAcu-Nf7KmGmuH2XIX-2" target="WPbAcu-Nf7KmGmuH2XIX-6" edge="1">
          <mxGeometry width="50" height="50" relative="1" as="geometry">
            <mxPoint x="150" y="320" as="sourcePoint" />
            <mxPoint x="242.65167250122568" y="501.09190534330446" as="targetPoint" />
          </mxGeometry>
        </mxCell>
        <mxCell id="WPbAcu-Nf7KmGmuH2XIX-19" value="" style="endArrow=none;html=1;rounded=0;exitX=0;exitY=0.3333333333333333;exitDx=0;exitDy=0;exitPerimeter=0;endFill=0;startArrow=classic;startFill=1;" parent="1" source="WPbAcu-Nf7KmGmuH2XIX-15" target="WPbAcu-Nf7KmGmuH2XIX-8" edge="1">
          <mxGeometry width="50" height="50" relative="1" as="geometry">
            <mxPoint x="160" y="330" as="sourcePoint" />
            <mxPoint x="252.65167250122568" y="511.09190534330446" as="targetPoint" />
          </mxGeometry>
        </mxCell>
        <mxCell id="WPbAcu-Nf7KmGmuH2XIX-20" value="&amp;lt;&amp;lt;includes&amp;gt;&amp;gt;" style="endArrow=none;html=1;rounded=0;dashed=1;endFill=0;startArrow=classic;startFill=1;" parent="1" source="WPbAcu-Nf7KmGmuH2XIX-14" target="WPbAcu-Nf7KmGmuH2XIX-6" edge="1">
          <mxGeometry x="-0.1298" y="-1" width="50" height="50" relative="1" as="geometry">
            <mxPoint x="50" y="600" as="sourcePoint" />
            <mxPoint x="100" y="550" as="targetPoint" />
            <mxPoint as="offset" />
          </mxGeometry>
        </mxCell>
        <mxCell id="WPbAcu-Nf7KmGmuH2XIX-21" value="&amp;lt;&amp;lt;includes&amp;gt;&amp;gt;" style="endArrow=none;html=1;rounded=0;dashed=1;endFill=0;startArrow=classic;startFill=1;" parent="1" source="WPbAcu-Nf7KmGmuH2XIX-8" target="WPbAcu-Nf7KmGmuH2XIX-11" edge="1">
          <mxGeometry width="50" height="50" relative="1" as="geometry">
            <mxPoint x="260" y="640" as="sourcePoint" />
            <mxPoint x="260" y="570" as="targetPoint" />
          </mxGeometry>
        </mxCell>
        <mxCell id="WPbAcu-Nf7KmGmuH2XIX-23" value="&amp;lt;&amp;lt;extends&amp;gt;&amp;gt;" style="endArrow=none;html=1;rounded=0;dashed=1;endFill=0;startArrow=classic;startFill=1;" parent="1" source="WPbAcu-Nf7KmGmuH2XIX-6" target="WPbAcu-Nf7KmGmuH2XIX-11" edge="1">
          <mxGeometry width="50" height="50" relative="1" as="geometry">
            <mxPoint x="330" y="675" as="sourcePoint" />
            <mxPoint x="490" y="675" as="targetPoint" />
          </mxGeometry>
        </mxCell>
        <mxCell id="B1BhM5AODhmCGD2LpbQk-1" value="&lt;h1&gt;Créer une commande&lt;/h1&gt;&lt;p style=&quot;font-size: 15px;&quot;&gt;Un utilisateur va se connecter.&lt;/p&gt;&lt;p style=&quot;font-size: 15px;&quot;&gt;Il va choisir des plats parmi ceux créer par les chefs,&lt;/p&gt;&lt;p style=&quot;font-size: 15px;&quot;&gt;Il pourra ensuite valider sa commande, ce qui entrainera une validation de paiement par la banque.&lt;/p&gt;&lt;p style=&quot;font-size: 15px;&quot;&gt;Une fois la commande valider un livreur sera assigner a celle ci,&amp;nbsp;&lt;/p&gt;&lt;p style=&quot;font-size: 15px;&quot;&gt;&lt;br&gt;&lt;/p&gt;" style="text;html=1;strokeColor=none;fillColor=none;spacing=5;spacingTop=-20;whiteSpace=wrap;overflow=hidden;rounded=0;" parent="1" vertex="1">
          <mxGeometry x="30" y="850" width="790" height="300" as="geometry" />
        </mxCell>
        <mxCell id="B1BhM5AODhmCGD2LpbQk-2" value="Livreur" style="shape=umlActor;verticalLabelPosition=bottom;verticalAlign=top;html=1;outlineConnect=0;fontSize=15;" parent="1" vertex="1">
          <mxGeometry x="730" y="440" width="30" height="60" as="geometry" />
        </mxCell>
        <mxCell id="B1BhM5AODhmCGD2LpbQk-3" value="Prends la commande" style="ellipse;whiteSpace=wrap;html=1;fontSize=15;" parent="1" vertex="1">
          <mxGeometry x="520" y="420" width="120" height="80" as="geometry" />
        </mxCell>
        <mxCell id="B1BhM5AODhmCGD2LpbQk-4" value="" style="endArrow=none;html=1;rounded=0;dashed=1;fontSize=15;endFill=0;startArrow=classic;startFill=1;" parent="1" source="WPbAcu-Nf7KmGmuH2XIX-11" target="B1BhM5AODhmCGD2LpbQk-3" edge="1">
          <mxGeometry width="50" height="50" relative="1" as="geometry">
            <mxPoint x="520" y="350" as="sourcePoint" />
            <mxPoint x="570" y="300" as="targetPoint" />
          </mxGeometry>
        </mxCell>
        <mxCell id="B1BhM5AODhmCGD2LpbQk-5" value="extends" style="edgeLabel;html=1;align=center;verticalAlign=middle;resizable=0;points=[];fontSize=15;" parent="B1BhM5AODhmCGD2LpbQk-4" vertex="1" connectable="0">
          <mxGeometry x="0.5176" y="3" relative="1" as="geometry">
            <mxPoint x="-4" y="-17" as="offset" />
          </mxGeometry>
        </mxCell>
        <mxCell id="B1BhM5AODhmCGD2LpbQk-6" value="" style="endArrow=classic;html=1;rounded=0;fontSize=15;entryX=0;entryY=0.3333333333333333;entryDx=0;entryDy=0;entryPerimeter=0;endFill=1;" parent="1" source="B1BhM5AODhmCGD2LpbQk-3" target="B1BhM5AODhmCGD2LpbQk-2" edge="1">
          <mxGeometry width="50" height="50" relative="1" as="geometry">
            <mxPoint x="480" y="550" as="sourcePoint" />
            <mxPoint x="530" y="500" as="targetPoint" />
          </mxGeometry>
        </mxCell>
        <mxCell id="dlfMZQF5xn7IMmqw2VlK-4" value="Voir les commandes" style="ellipse;whiteSpace=wrap;html=1;fontSize=14;" parent="1" vertex="1">
          <mxGeometry x="260" y="360" width="120" height="80" as="geometry" />
        </mxCell>
        <mxCell id="dlfMZQF5xn7IMmqw2VlK-5" value="" style="endArrow=classic;html=1;rounded=0;fontSize=14;exitX=1;exitY=0.3333333333333333;exitDx=0;exitDy=0;exitPerimeter=0;" parent="1" source="WPbAcu-Nf7KmGmuH2XIX-2" target="dlfMZQF5xn7IMmqw2VlK-4" edge="1">
          <mxGeometry width="50" height="50" relative="1" as="geometry">
            <mxPoint x="30" y="590" as="sourcePoint" />
            <mxPoint x="80" y="540" as="targetPoint" />
          </mxGeometry>
        </mxCell>
        <mxCell id="dlfMZQF5xn7IMmqw2VlK-6" value="" style="endArrow=classic;html=1;rounded=0;fontSize=14;dashed=1;" parent="1" source="WPbAcu-Nf7KmGmuH2XIX-11" target="dlfMZQF5xn7IMmqw2VlK-4" edge="1">
          <mxGeometry width="50" height="50" relative="1" as="geometry">
            <mxPoint x="390" y="330" as="sourcePoint" />
            <mxPoint x="440" y="280" as="targetPoint" />
          </mxGeometry>
        </mxCell>
        <mxCell id="dlfMZQF5xn7IMmqw2VlK-7" value="&amp;lt;&amp;lt;extends&amp;gt;&amp;gt;" style="edgeLabel;html=1;align=center;verticalAlign=middle;resizable=0;points=[];fontSize=14;" parent="dlfMZQF5xn7IMmqw2VlK-6" vertex="1" connectable="0">
          <mxGeometry x="0.2436" y="3" relative="1" as="geometry">
            <mxPoint as="offset" />
          </mxGeometry>
        </mxCell>
        <mxCell id="9IMNQCcDOZ_F4U7MbICs-1" value="Il s&#39;agit ici d&#39;un use case représentant quasiment l&#39;intégralité du processus client.&amp;nbsp;" style="shape=note;whiteSpace=wrap;html=1;backgroundOutline=1;darkOpacity=0.05;fontSize=17;" vertex="1" parent="1">
          <mxGeometry x="30" width="260" height="100" as="geometry" />
        </mxCell>
      </root>
    </mxGraphModel>
  </diagram>
  <diagram id="u4Pun7L2qdL3AVSLdMft" name="diagrammes de séquence">
    <mxGraphModel dx="2062" dy="1128" grid="1" gridSize="10" guides="1" tooltips="1" connect="1" arrows="1" fold="1" page="1" pageScale="1" pageWidth="1169" pageHeight="827" math="0" shadow="0">
      <root>
        <mxCell id="0" />
        <mxCell id="1" parent="0" />
        <mxCell id="Q_VnWVO_crMtx4NWkv3k-3" value="login" style="shape=umlLifeline;perimeter=lifelinePerimeter;whiteSpace=wrap;html=1;container=1;collapsible=0;recursiveResize=0;outlineConnect=0;" parent="1" vertex="1">
          <mxGeometry x="200" y="30" width="140" height="300" as="geometry" />
        </mxCell>
        <mxCell id="SjkIaKTdQtKRnvyPxWeR-4" value="" style="html=1;points=[];perimeter=orthogonalPerimeter;" parent="Q_VnWVO_crMtx4NWkv3k-3" vertex="1">
          <mxGeometry x="65" y="140" width="10" height="40" as="geometry" />
        </mxCell>
        <mxCell id="SjkIaKTdQtKRnvyPxWeR-5" value="verifier connection" style="edgeStyle=orthogonalEdgeStyle;html=1;align=left;spacingLeft=2;endArrow=block;rounded=0;entryX=1;entryY=0;" parent="Q_VnWVO_crMtx4NWkv3k-3" target="SjkIaKTdQtKRnvyPxWeR-4" edge="1">
          <mxGeometry x="0.0667" y="15" relative="1" as="geometry">
            <mxPoint x="70" y="120" as="sourcePoint" />
            <Array as="points">
              <mxPoint x="110" y="120" />
              <mxPoint x="110" y="140" />
            </Array>
            <mxPoint as="offset" />
          </mxGeometry>
        </mxCell>
        <mxCell id="Q_VnWVO_crMtx4NWkv3k-5" value="client" style="shape=umlLifeline;participant=umlActor;perimeter=lifelinePerimeter;whiteSpace=wrap;html=1;container=1;collapsible=0;recursiveResize=0;verticalAlign=top;spacingTop=36;outlineConnect=0;" parent="1" vertex="1">
          <mxGeometry x="50" y="30" width="20" height="300" as="geometry" />
        </mxCell>
        <mxCell id="Q_VnWVO_crMtx4NWkv3k-6" value="commande" style="shape=umlLifeline;perimeter=lifelinePerimeter;whiteSpace=wrap;html=1;container=1;collapsible=0;recursiveResize=0;outlineConnect=0;" parent="1" vertex="1">
          <mxGeometry x="370" y="30" width="100" height="300" as="geometry" />
        </mxCell>
        <mxCell id="Q_VnWVO_crMtx4NWkv3k-9" value="" style="html=1;verticalAlign=bottom;startArrow=oval;startFill=1;endArrow=block;startSize=8;rounded=0;" parent="1" source="Q_VnWVO_crMtx4NWkv3k-5" target="Q_VnWVO_crMtx4NWkv3k-3" edge="1">
          <mxGeometry width="60" relative="1" as="geometry">
            <mxPoint x="100" y="170" as="sourcePoint" />
            <mxPoint x="160" y="170" as="targetPoint" />
            <Array as="points">
              <mxPoint x="170" y="120" />
            </Array>
          </mxGeometry>
        </mxCell>
        <mxCell id="SjkIaKTdQtKRnvyPxWeR-1" value="se connecter" style="edgeLabel;html=1;align=center;verticalAlign=middle;resizable=0;points=[];" parent="Q_VnWVO_crMtx4NWkv3k-9" vertex="1" connectable="0">
          <mxGeometry x="-0.0579" y="-3" relative="1" as="geometry">
            <mxPoint x="1" as="offset" />
          </mxGeometry>
        </mxCell>
        <mxCell id="SjkIaKTdQtKRnvyPxWeR-3" value="Livreur" style="shape=umlLifeline;participant=umlActor;perimeter=lifelinePerimeter;whiteSpace=wrap;html=1;container=1;collapsible=0;recursiveResize=0;verticalAlign=top;spacingTop=36;outlineConnect=0;" parent="1" vertex="1">
          <mxGeometry x="850" y="20" width="20" height="300" as="geometry" />
        </mxCell>
        <mxCell id="SjkIaKTdQtKRnvyPxWeR-6" value="connection bonne" style="shape=umlFrame;whiteSpace=wrap;html=1;" parent="1" vertex="1">
          <mxGeometry x="30" y="210" width="300" height="96" as="geometry" />
        </mxCell>
        <mxCell id="SjkIaKTdQtKRnvyPxWeR-8" value="connecter" style="html=1;verticalAlign=bottom;endArrow=open;dashed=1;endSize=8;rounded=0;" parent="1" source="Q_VnWVO_crMtx4NWkv3k-3" target="Q_VnWVO_crMtx4NWkv3k-5" edge="1">
          <mxGeometry relative="1" as="geometry">
            <mxPoint x="250" y="270" as="sourcePoint" />
            <mxPoint x="170" y="270" as="targetPoint" />
            <Array as="points">
              <mxPoint x="180" y="230" />
            </Array>
          </mxGeometry>
        </mxCell>
        <mxCell id="SjkIaKTdQtKRnvyPxWeR-9" value="" style="html=1;verticalAlign=bottom;endArrow=open;dashed=1;endSize=8;rounded=0;" parent="1" source="Q_VnWVO_crMtx4NWkv3k-3" target="Q_VnWVO_crMtx4NWkv3k-5" edge="1">
          <mxGeometry x="-0.0524" y="-10" relative="1" as="geometry">
            <mxPoint x="200" y="340" as="sourcePoint" />
            <mxPoint x="120" y="340" as="targetPoint" />
            <Array as="points">
              <mxPoint x="210" y="320" />
            </Array>
            <mxPoint as="offset" />
          </mxGeometry>
        </mxCell>
        <mxCell id="SjkIaKTdQtKRnvyPxWeR-10" value="non connecter" style="text;html=1;align=center;verticalAlign=middle;resizable=0;points=[];autosize=1;strokeColor=none;fillColor=none;" parent="1" vertex="1">
          <mxGeometry x="120" y="330" width="100" height="30" as="geometry" />
        </mxCell>
      </root>
    </mxGraphModel>
  </diagram>
</mxfile>
